<svg xmlns="http://www.w3.org/2000/svg" xmlns:xlink="http://www.w3.org/1999/xlink" width="552" zoomAndPan="magnify" viewBox="0 0 414 173.999997" height="232" preserveAspectRatio="xMidYMid meet" version="1.0"><defs><g/><clipPath id="9145c20f21"><rect x="0" width="308" y="0" height="134"/></clipPath><clipPath id="d33409f2cd"><path d="M 13 4 L 51 4 L 51 42 L 13 42 Z M 13 4 " clip-rule="nonzero"/></clipPath><clipPath id="f2796ebda3"><path d="M 9.769531 37.808594 L 47.132812 0.449219 L 54.332031 7.648438 L 16.96875 45.011719 Z M 9.769531 37.808594 " clip-rule="nonzero"/></clipPath><clipPath id="891a62e12f"><path d="M 28.4375 19.140625 L 50.707031 4.074219 L 35.640625 26.34375 L 13.367188 41.410156 Z M 28.4375 19.140625 " clip-rule="nonzero"/></clipPath><clipPath id="b499315500"><path d="M 0.199219 0 L 37.878906 0 L 37.878906 37.558594 L 0.199219 37.558594 Z M 0.199219 0 " clip-rule="nonzero"/></clipPath><clipPath id="bc72a4b2dc"><path d="M -3.230469 33.808594 L 34.132812 -3.550781 L 41.332031 3.648438 L 3.96875 41.011719 Z M -3.230469 33.808594 " clip-rule="nonzero"/></clipPath><clipPath id="df41559fd6"><path d="M 15.4375 15.140625 L 37.707031 0.0742188 L 22.640625 22.34375 L 0.367188 37.410156 Z M 15.4375 15.140625 " clip-rule="nonzero"/></clipPath><clipPath id="5e9843ead9"><rect x="0" width="38" y="0" height="38"/></clipPath><clipPath id="6ef39b08c5"><path d="M 2 12 L 61 12 L 61 70 L 2 70 Z M 2 12 " clip-rule="nonzero"/></clipPath><clipPath id="231ce7aeb4"><path d="M 0 66.785156 L 57.402344 9.382812 L 63.0625 15.042969 L 5.660156 72.445312 Z M 0 66.785156 " clip-rule="nonzero"/></clipPath><clipPath id="87a312cbb5"><path d="M 28.695312 38.089844 L 60.222656 12.226562 L 34.355469 43.75 L 2.832031 69.617188 Z M 28.695312 38.089844 " clip-rule="nonzero"/></clipPath><clipPath id="d28a18b842"><path d="M 0.640625 0.0390625 L 58.238281 0.0390625 L 58.238281 57.640625 L 0.640625 57.640625 Z M 0.640625 0.0390625 " clip-rule="nonzero"/></clipPath><clipPath id="f239103242"><path d="M -2 54.785156 L 55.402344 -2.617188 L 61.0625 3.042969 L 3.660156 60.445312 Z M -2 54.785156 " clip-rule="nonzero"/></clipPath><clipPath id="2e6ed682cd"><path d="M 26.695312 26.089844 L 58.222656 0.226562 L 32.355469 31.75 L 0.832031 57.617188 Z M 26.695312 26.089844 " clip-rule="nonzero"/></clipPath><clipPath id="ea27a2e128"><rect x="0" width="59" y="0" height="58"/></clipPath><clipPath id="e83e28cb75"><path d="M 20 34 L 58 34 L 58 72 L 20 72 Z M 20 34 " clip-rule="nonzero"/></clipPath><clipPath id="d4fcb43b7b"><path d="M 16.675781 68.167969 L 54.199219 30.640625 L 61.527344 37.96875 L 24 75.496094 Z M 16.675781 68.167969 " clip-rule="nonzero"/></clipPath><clipPath id="9ea56ebaae"><path d="M 35.425781 49.414062 L 57.839844 34.328125 L 42.753906 56.742188 L 20.335938 71.832031 Z M 35.425781 49.414062 " clip-rule="nonzero"/></clipPath><clipPath id="e266736b15"><path d="M 0.160156 0.121094 L 38 0.121094 L 38 38 L 0.160156 38 Z M 0.160156 0.121094 " clip-rule="nonzero"/></clipPath><clipPath id="c7559a34e5"><path d="M -3.324219 34.167969 L 34.199219 -3.359375 L 41.527344 3.96875 L 4 41.496094 Z M -3.324219 34.167969 " clip-rule="nonzero"/></clipPath><clipPath id="536979d704"><path d="M 15.425781 15.414062 L 37.839844 0.328125 L 22.753906 22.742188 L 0.335938 37.832031 Z M 15.425781 15.414062 " clip-rule="nonzero"/></clipPath><clipPath id="dc543544ff"><rect x="0" width="38" y="0" height="38"/></clipPath><clipPath id="fb7d7bab1c"><rect x="0" width="64" y="0" height="76"/></clipPath></defs><g transform="matrix(1, 0, 0, 1, 69, 19)"><g clip-path="url(#9145c20f21)"><g fill="#000000" fill-opacity="1"><g transform="translate(0.921333, 103.648169)"><g><path d="M 25.65625 -53.90625 L 4.0625 -53.90625 L 4.0625 -66.265625 L 44.125 -66.265625 L 20.484375 -12 L 42.640625 -12 L 42.640625 0 L 2.125 0 Z M 25.65625 -53.90625 "/></g></g></g><g fill="#000000" fill-opacity="1"><g transform="translate(47.061545, 103.648169)"><g><path d="M 50.765625 0 L 45.6875 -13.65625 L 18.1875 -13.65625 L 13.109375 0 L 0 0 L 25.5625 -66.265625 L 38.296875 -66.265625 L 63.875 0 Z M 22.890625 -26.03125 L 41.078125 -26.03125 L 31.9375 -50.390625 Z M 22.890625 -26.03125 "/></g></g></g><g fill="#000000" fill-opacity="1"><g transform="translate(110.919598, 103.648169)"><g><path d="M 7.5625 -66.265625 L 20.21875 -66.265625 L 20.21875 -41.34375 L 42.546875 -41.34375 L 42.546875 -66.265625 L 55.1875 -66.265625 L 55.1875 0 L 42.546875 0 L 42.546875 -28.984375 L 20.21875 -28.984375 L 20.21875 0 L 7.5625 0 Z M 7.5625 -66.265625 "/></g></g></g><g fill="#000000" fill-opacity="1"><g transform="translate(173.670287, 103.648169)"><g><path d="M 50.765625 0 L 45.6875 -13.65625 L 18.1875 -13.65625 L 13.109375 0 L 0 0 L 25.5625 -66.265625 L 38.296875 -66.265625 L 63.875 0 Z M 22.890625 -26.03125 L 41.078125 -26.03125 L 31.9375 -50.390625 Z M 22.890625 -26.03125 "/></g></g></g><g fill="#000000" fill-opacity="1"><g transform="translate(237.52834, 103.648169)"><g><path d="M 48.09375 -66.265625 L 60.734375 -66.265625 L 60.734375 0 L 48.546875 0 L 20.21875 -43.375 L 20.21875 0 L 7.5625 0 L 7.5625 -66.265625 L 19.65625 -66.265625 L 48.09375 -22.796875 Z M 48.09375 -66.265625 "/></g></g></g></g></g><g transform="matrix(1, 0, 0, 1, 0, 53)"><g clip-path="url(#fb7d7bab1c)"><g clip-path="url(#d33409f2cd)"><g clip-path="url(#f2796ebda3)"><g clip-path="url(#891a62e12f)"><g transform="matrix(1, 0, 0, 1, 13, 4)"><g clip-path="url(#5e9843ead9)"><g clip-path="url(#b499315500)"><g clip-path="url(#bc72a4b2dc)"><g clip-path="url(#df41559fd6)"><path fill="#000000" d="M -3.230469 33.808594 L 34.101562 -3.523438 L 41.304688 3.679688 L 3.96875 41.011719 Z M -3.230469 33.808594 " fill-opacity="1" fill-rule="nonzero"/></g></g></g></g></g></g></g></g><g clip-path="url(#6ef39b08c5)"><g clip-path="url(#231ce7aeb4)"><g clip-path="url(#87a312cbb5)"><g transform="matrix(1, 0, 0, 1, 2, 12)"><g clip-path="url(#ea27a2e128)"><g clip-path="url(#d28a18b842)"><g clip-path="url(#f239103242)"><g clip-path="url(#2e6ed682cd)"><path fill="#000000" d="M -2 54.785156 L 55.402344 -2.617188 L 61.0625 3.042969 L 3.660156 60.445312 Z M -2 54.785156 " fill-opacity="1" fill-rule="nonzero"/></g></g></g></g></g></g></g></g><g clip-path="url(#e83e28cb75)"><g clip-path="url(#d4fcb43b7b)"><g clip-path="url(#9ea56ebaae)"><g transform="matrix(1, 0, 0, 1, 20, 34)"><g clip-path="url(#dc543544ff)"><g clip-path="url(#e266736b15)"><g clip-path="url(#c7559a34e5)"><g clip-path="url(#536979d704)"><path fill="#000000" d="M -3.324219 34.167969 L 34.171875 -3.332031 L 41.5 3.996094 L 4 41.496094 Z M -3.324219 34.167969 " fill-opacity="1" fill-rule="nonzero"/></g></g></g></g></g></g></g></g></g></g></svg>